<?xml version="1.0" encoding="UTF-8"?>
<svg id="Layer_2" data-name="Layer 2" xmlns="http://www.w3.org/2000/svg" viewBox="0 0 330 373.88">
  <defs>
    <style>
      .cls-1 {
        fill: #777;
      }

      .cls-2 {
        fill: #8c8c8c;
      }

      .cls-3 {
        fill: #fdfdfd;
      }
    </style>
  </defs>
  <g id="Layer_2-2" data-name="Layer 2">
    <polygon class="cls-1" points="0 0 330 0 299.51 336.01 165 373.88 30.14 335.36 0 0"/>
    <polygon class="cls-2" points="170.99 27 304.99 27 279.86 314.87 170.99 345 170.99 27"/>
    <path class="cls-3" d="M170.98,68.59c34.31,0,68.73-.42,103.01.51l-19.21,209.28-83.8,23.21-86.87-23.13-6.13-66.87h41.5c.56,0,1.54,1.68,1.5,2.5l1.99,29.01,1,2c14.65,3.16,31.21,10.66,46.02,11.48.24.01,1.66,1.59,2.95.63l42.85-11.84,5.2-52.8c-16.99-.02-34.02.04-51,0-30.65-.07-61.35.04-92.01,0l-3-41.01c31.99-.04,64.02.07,96.01,0,17.99-.03,36.02.02,54,0l4.03-40.5-1.51-1.52c-18.84-.02-37.7.06-56.53,0-33.32-.09-66.69.06-100.01,0l-3-41.01c34.32,0,68.69.01,103.01,0Z"/>
  </g>
</svg>