<?xml version="1.0" encoding="UTF-8"?>
<svg id="Layer_2" data-name="Layer 2" xmlns="http://www.w3.org/2000/svg" viewBox="0 0 384 384">
  <defs>
    <style>
      .cls-1 {
        fill: #fdbd03;
      }

      .cls-2 {
        fill: #fff;
      }
    </style>
  </defs>
  <g id="Layer_1-2" data-name="Layer 1">
    <g>
      <path class="cls-1" d="M204.07,0l19.65,2.47c82.03,13.41,147.89,81.2,158.67,163.76.59,4.51.46,9.45,1.61,13.77v24c-1.16,4.32-1.01,9.26-1.61,13.77-10.96,82.68-76.47,150.23-158.67,163.76l-19.65,2.47h-23.99c-4.32-1.16-9.26-1.01-13.76-1.61C81.65,371.16,12.83,302.57,1.75,217.77c-.59-4.51-.46-9.45-1.61-13.77.34-7.93-.46-16.09,0-24C5.72,84.77,84.89,5.57,180.08,0h23.99ZM237.06,94.5h-33.36c-1.89,0-7.94,1.31-10.13,1.87-29.64,7.53-27.2,37.14-26.98,61.88h-19.12l-1.12,1.12v32.62h20.24v97.5h40.48v-97.5h26.99l3-33.75h-29.99v-22.12c0-3.05,5.03-7.88,7.87-7.88h22.12v-33.75Z"/>
      <path class="cls-2" d="M.15,204c1.15,4.32,1.02,9.26,1.61,13.77,11.08,84.81,79.89,153.4,164.56,164.62,4.51.6,9.44.45,13.76,1.61H.15v-180Z"/>
      <path class="cls-2" d="M384,204v180h-179.93l19.65-2.47c82.2-13.53,147.72-81.09,158.67-163.76.6-4.51.45-9.45,1.61-13.77Z"/>
      <path class="cls-2" d="M180.08,0C84.89,5.57,5.72,84.77.15,180V0h179.93Z"/>
      <path class="cls-2" d="M204.07,0h179.93v180c-1.15-4.32-1.02-9.26-1.61-13.77C371.61,83.67,305.75,15.88,223.72,2.47l-19.65-2.47Z"/>
      <path class="cls-2" d="M237.06,94.5v33.75h-22.12c-2.85,0-7.87,4.82-7.87,7.88v22.12h29.99l-3,33.75h-26.99v97.5h-40.48v-97.5h-20.24v-32.62l1.12-1.12h19.12c-.22-24.74-2.66-54.35,26.98-61.88,2.19-.56,8.24-1.87,10.13-1.87h33.36Z"/>
    </g>
  </g>
</svg>