<?xml version="1.0" encoding="UTF-8"?>
<svg id="Layer_2" data-name="Layer 2" xmlns="http://www.w3.org/2000/svg" viewBox="0 0 330 373.88">
  <defs>
    <style>
      .cls-1 {
        fill: #f67280;
      }

      .cls-2 {
        fill: #f2b8c1;
      }

      .cls-3 {
        fill: #fdfdfd;
      }
    </style>
  </defs>
  <g id="Layer_2-2" data-name="Layer 2">
    <polygon class="cls-1" points="0 0 330 0 299.51 336.01 165 373.88 30.14 335.36 0 0"/>
    <polygon class="cls-2" points="170.99 27 304.99 27 279.86 314.87 170.99 345 170.99 27"/>
    <path class="cls-3" d="M261.88,68.5l-4,41H99.88l4,42h150l-11.58,127.12-83.91,22.96-84.53-23.55-.98-2.02-4.99-62.51h42l1.99,30.51,1,2,43.76,12.25,4.68.2c5.47-3.43,41.39-10.08,43.1-12.94l4.48-53.02H65.88l-11-124h207Z"/>
  </g>
</svg>