<?xml version="1.0" encoding="UTF-8"?>
<svg id="Layer_2" data-name="Layer 2" xmlns="http://www.w3.org/2000/svg" viewBox="0 0 384 384">
  <defs>
    <style>
      .cls-1 {
        fill: #fdbd03;
      }

      .cls-2 {
        fill: #fff;
      }
    </style>
  </defs>
  <g id="Layer_1-2" data-name="Layer 1">
    <g>
      <path class="cls-1" d="M204.07,0l19.65,2.47c82.07,13.45,147.88,81.15,158.67,163.76.59,4.51.46,9.45,1.61,13.77v24c-1.16,4.32-1.01,9.26-1.61,13.77-10.96,82.68-76.47,150.23-158.67,163.76l-19.65,2.47h-23.99c-4.32-1.16-9.26-1.01-13.76-1.61C81.65,371.16,12.83,302.57,1.75,217.77c-.59-4.51-.46-9.45-1.61-13.77.34-7.93-.46-16.09,0-24C5.72,84.77,84.89,5.57,180.08,0h23.99ZM116.91,93.18c-16.49,2.78-21.94,24.94-8.81,35.45,16.67,13.34,43.99-1.9,35.09-23.85-4.2-10.36-16.1-13.32-26.28-11.6ZM283.54,267c-1.09-23.48,1.46-48.28,0-71.62-1.92-30.43-18.33-50.98-50.63-48.41-12.47.99-22.45,8.28-29.59,18.03v-14.62l-1.12-1.12h-37.49l-1.12,117.75h39.73v-72.38c0-1.05,3.28-7.36,4.17-8.57,7.75-10.53,26.18-12.03,32.89,0,1.99,3.57,4.17,12.12,4.17,16.08v64.88h38.99ZM141.84,149.25h-37.86l-1.12,1.12v116.62h38.99v-117.75Z"/>
      <path class="cls-2" d="M.15,204c1.15,4.32,1.02,9.26,1.61,13.77,11.08,84.81,79.89,153.4,164.56,164.62,4.51.6,9.44.45,13.76,1.61H.15v-180Z"/>
      <path class="cls-2" d="M384,204v180h-179.93l19.65-2.47c82.2-13.53,147.72-81.09,158.67-163.76.6-4.51.45-9.45,1.61-13.77Z"/>
      <path class="cls-2" d="M180.08,0C84.89,5.57,5.72,84.77.15,180V0h179.93Z"/>
      <path class="cls-2" d="M204.07,0h179.93v180c-1.15-4.32-1.02-9.26-1.61-13.77C371.6,83.62,305.79,15.92,223.72,2.47l-19.65-2.47Z"/>
      <path class="cls-2" d="M283.54,267h-38.99v-64.88c0-3.96-2.18-12.51-4.17-16.08-6.71-12.03-25.13-10.53-32.89,0-.9,1.22-4.17,7.53-4.17,8.57v72.38h-39.73l1.12-117.75h37.49l1.12,1.12v14.62c7.14-9.75,17.11-17.03,29.59-18.03,32.3-2.57,48.71,17.98,50.63,48.41,1.47,23.34-1.08,48.13,0,71.62Z"/>
      <polygon class="cls-2" points="141.84 149.25 141.84 267 102.86 267 102.86 150.38 103.98 149.25 141.84 149.25"/>
      <path class="cls-2" d="M116.91,93.18c10.18-1.72,22.07,1.24,26.28,11.6,8.9,21.95-18.42,37.19-35.09,23.85-13.14-10.51-7.68-32.67,8.81-35.45Z"/>
    </g>
  </g>
</svg>