<?xml version="1.0" encoding="UTF-8"?>
<svg id="Layer_2" data-name="Layer 2" xmlns="http://www.w3.org/2000/svg" viewBox="0 0 384 384">
  <defs>
    <style>
      .cls-1 {
        fill: #fdbd03;
      }

      .cls-2 {
        fill: #fff;
      }

      .cls-3 {
        fill: #fdfdfe;
      }
    </style>
  </defs>
  <g id="Layer_1-2" data-name="Layer 1">
    <path class="cls-3" d="M384,211.5v172.5h-174c12.02-3.16,24.33-4.48,36.32-7.93,60.37-17.35,110.86-67.3,129.1-127.4,3.72-12.24,4.97-24.95,8.57-37.18Z"/>
    <path class="cls-3" d="M211.5,0h172.5v172.5c-3.61-12.22-4.86-24.93-8.57-37.18-18.26-60.14-68.68-110.04-129.1-127.4-11.51-3.31-23.4-4.48-34.82-7.93Z"/>
    <path class="cls-3" d="M172.5,384H0v-172.5c3.43,11.43,4.65,23.3,7.93,34.82,17.17,60.36,67.43,110.88,127.43,129.07,12.25,3.71,24.91,5.05,37.14,8.61Z"/>
    <path class="cls-3" d="M171,0c-11.63,3.83-23.84,5.09-35.64,8.61C75.57,26.43,24.96,77.72,7.93,137.68c-3.27,11.52-4.51,23.39-7.93,34.82V0h171Z"/>
    <g>
      <path class="cls-1" d="M204.07,0l19.65,2.47c82.03,13.41,147.89,81.2,158.67,163.76.59,4.51.46,9.45,1.61,13.77v24c-1.16,4.32-1.01,9.26-1.61,13.77-10.96,82.68-76.47,150.23-158.67,163.76l-19.65,2.47h-23.99c-4.32-1.16-9.26-1.01-13.76-1.61C81.63,371.16,12.84,302.59,1.75,217.77c-.59-4.51-.46-9.45-1.61-13.77.34-7.93-.46-16.09,0-24C5.72,84.77,84.89,5.57,180.08,0h23.99ZM116.9,99.18c-9.14,2.35-16.37,9.46-17.8,18.94l-.03,147.04c.94,10.25,9.72,18.69,19.87,19.87h146.25c10.13-1.19,18.93-9.59,19.87-19.87V118.84c-.91-9.97-9.35-18.38-19.14-19.85l-149.02.18Z"/>
      <path class="cls-2" d="M.15,204c1.15,4.32,1.02,9.26,1.61,13.77,11.08,84.82,79.88,153.4,164.56,164.62,4.51.6,9.44.45,13.76,1.61H.15v-180Z"/>
      <path class="cls-2" d="M384,204v180h-179.93l19.65-2.47c82.2-13.53,147.72-81.09,158.67-163.76.6-4.51.45-9.45,1.61-13.77Z"/>
      <path class="cls-2" d="M180.08,0C84.89,5.57,5.72,84.77.15,180V0h179.93Z"/>
      <path class="cls-2" d="M204.07,0h179.93v180c-1.15-4.32-1.02-9.26-1.61-13.77C371.61,83.67,305.75,15.88,223.72,2.47l-19.65-2.47Z"/>
      <path class="cls-2" d="M116.9,99.18l149.02-.18c9.8,1.47,18.23,9.88,19.14,19.85v146.31c-.94,10.28-9.74,18.68-19.87,19.87H118.95c-10.14-1.18-18.93-9.63-19.87-19.87l.03-147.04c1.43-9.48,8.66-16.59,17.8-18.94ZM230.84,122.41c-2.53.58-3.27,2.3-3.55,4.7-.62,5.31-.62,19.47,0,24.78.24,2.08.82,3.84,2.97,4.53,2.45.79,23.36.82,26.7.37,1.61-.21,3.84-1.6,4.44-3.06.72-1.74.83-23.68.43-26.65-.21-1.61-1.6-3.84-3.06-4.44-1.7-.71-25.45-.8-27.94-.23ZM229.09,191.65c0-20.37-16.51-36.88-36.87-36.88s-36.87,16.51-36.87,36.88,16.51,36.88,36.87,36.88,36.87-16.51,36.87-36.88ZM122.35,174.75v84.38c0,.21,1.81,1.82,2.26,2.24h134.92c.46-.42,2.26-2.03,2.26-2.24v-84.38l-14.25,3.01c8.7,26.75-5.72,55.76-30.98,66.87-44.69,19.65-93.45-19.11-79.97-66.87l-14.25-3.01Z"/>
      <path class="cls-1" d="M122.35,174.75l14.25,3.01c-13.48,47.76,35.28,86.53,79.97,66.87,25.26-11.11,39.68-40.12,30.98-66.87l14.25-3.01v84.38c0,.21-1.81,1.82-2.26,2.24H124.61c-.46-.42-2.26-2.03-2.26-2.24v-84.38Z"/>
      <ellipse class="cls-1" cx="192.22" cy="191.65" rx="36.87" ry="36.88"/>
      <path class="cls-1" d="M230.84,122.41c2.49-.57,26.24-.48,27.94.23,1.46.61,2.84,2.84,3.06,4.44.4,2.97.29,24.91-.43,26.65-.61,1.46-2.84,2.84-4.44,3.06-3.34.44-24.25.42-26.7-.37-2.15-.69-2.72-2.45-2.97-4.53-.62-5.31-.62-19.47,0-24.78.28-2.4,1.02-4.12,3.55-4.7Z"/>
    </g>
  </g>
</svg>