<?xml version="1.0" encoding="UTF-8"?>
<svg id="Layer_2" data-name="Layer 2" xmlns="http://www.w3.org/2000/svg" viewBox="0 0 65.89 19.01">
  <defs>
    <style>
      .cls-1 {
        fill: #fff;
      }
    </style>
  </defs>
  <g id="Layer_1-2" data-name="Layer 1">
    <g>
      <path class="cls-1" d="M34.42,12.46v5.87h1.69c.12,0,.2.02.25.07s.08.1.08.18c0,.07-.03.13-.08.18s-.13.07-.25.07h-3.87c-.12,0-.2-.02-.25-.07s-.08-.11-.08-.18c0-.07.03-.13.08-.18s.13-.07.25-.07h1.69v-5.87h-1.69c-.12,0-.2-.02-.25-.07s-.08-.1-.08-.18.03-.13.08-.18.13-.07.25-.07h3.87c.12,0,.2.02.25.07s.08.1.08.18-.03.13-.08.18-.13.07-.25.07h-1.69Z"/>
      <path class="cls-1" d="M43.53,12.64v-.35c0-.12.02-.2.07-.25s.1-.08.18-.08.13.03.18.08.07.13.07.25v1.37c0,.12-.02.21-.07.26s-.1.08-.18.08c-.07,0-.12-.02-.17-.07s-.07-.12-.08-.23c-.02-.33-.2-.62-.53-.87-.45-.35-.97-.52-1.55-.52-.38,0-.74.08-1.07.25-.25.12-.45.27-.6.45-.26.3-.46.64-.62,1.01-.11.27-.16.58-.16.93v.86c0,.73.27,1.37.8,1.91s1.15.81,1.85.81c.42,0,.8-.09,1.13-.28s.66-.46.97-.83c.07-.08.14-.12.22-.12.07,0,.13.02.17.06s.06.1.06.16c0,.09-.08.23-.25.41-.32.36-.68.63-1.08.81s-.81.27-1.22.27c-.36,0-.72-.07-1.08-.21-.28-.11-.51-.23-.7-.37s-.41-.38-.68-.71-.45-.64-.55-.93-.15-.59-.15-.93v-1c0-.48.13-.98.39-1.49s.62-.89,1.07-1.17.94-.41,1.47-.41c.81,0,1.51.28,2.1.83Z"/>
      <path class="cls-1" d="M50.24,15.5h-3.26v2.82h.66c.12,0,.2.02.25.07s.08.1.08.18c0,.07-.03.13-.08.18s-.13.07-.25.07h-1.71c-.12,0-.2-.02-.25-.07s-.08-.11-.08-.18c0-.07.03-.13.08-.18s.13-.07.25-.07h.56v-5.87h-.3c-.12,0-.21-.02-.26-.07s-.08-.1-.08-.18.03-.13.08-.18.14-.07.26-.07h1.46c.12,0,.2.02.25.07s.08.1.08.18-.03.13-.08.18-.13.07-.25.07h-.66v2.55h3.26v-2.55h-.66c-.12,0-.2-.02-.25-.07s-.08-.1-.08-.18.02-.13.07-.18.13-.07.25-.07h1.46c.12,0,.21.02.26.07s.08.1.08.18-.03.13-.08.18-.14.07-.26.07h-.3v5.87h.56c.12,0,.2.02.25.07s.08.1.08.18c0,.07-.03.13-.08.18s-.13.07-.25.07h-1.71c-.12,0-.2-.02-.25-.07s-.08-.11-.08-.18c0-.07.02-.13.07-.18s.13-.07.25-.07h.66v-2.82Z"/>
      <path class="cls-1" d="M57.39,16.53h-3.23l-.66,1.8h.94c.12,0,.2.02.25.07s.08.1.08.18c0,.07-.03.13-.08.18s-.13.07-.25.07h-1.84c-.12,0-.2-.02-.25-.07s-.08-.11-.08-.18c0-.07.03-.13.08-.18s.13-.07.25-.07h.38l2.17-5.87h-1.45c-.12,0-.2-.02-.25-.07s-.08-.1-.08-.18.03-.13.08-.18.13-.07.25-.07h2.48l2.4,6.36h.38c.12,0,.2.02.25.07s.08.1.08.18c0,.07-.03.13-.08.18s-.13.07-.25.07h-1.83c-.12,0-.21-.02-.26-.07s-.08-.11-.08-.18c0-.07.03-.13.08-.18s.14-.07.26-.07h.94l-.67-1.8ZM57.2,16.04l-1.36-3.58h-.18l-1.32,3.58h2.86Z"/>
      <path class="cls-1" d="M62.12,12.46v5.87h3.27v-1.96c0-.12.02-.2.07-.25s.11-.08.18-.08c.07,0,.13.02.18.07s.07.13.07.25v2.45h-5.44c-.12,0-.2-.02-.25-.07s-.08-.11-.08-.18c0-.07.03-.13.08-.18s.13-.07.25-.07h1.17v-5.87h-1.17c-.12,0-.2-.02-.25-.07s-.08-.1-.08-.18.03-.13.08-.18.13-.07.25-.07h2.84c.12,0,.2.02.25.07s.08.1.08.18-.03.13-.08.18-.13.07-.25.07h-1.17Z"/>
    </g>
    <path class="cls-1" d="M11.88,0l9.69,18.82h-2.8L10.83,2.96h-.08l-7.95,15.86H0L9.65,0h2.23Z"/>
    <path class="cls-1" d="M20.73,0l9.69,18.82h-2.8l-7.95-15.86h-.08l-7.95,15.86h-2.8L18.5,0h2.23Z"/>
  </g>
</svg>