<?xml version="1.0" encoding="UTF-8"?>
<svg id="Layer_2" data-name="Layer 2" xmlns="http://www.w3.org/2000/svg" viewBox="0 0 68.42 26.21">
  <defs>
    <style>
      .cls-1 {
        fill: #fff;
      }
    </style>
  </defs>
  <g id="Layer_1-2" data-name="Layer 1">
    <g>
      <path class="cls-1" d="M2.31,24.16H.85l-.3.81h.43c.05,0,.09,0,.11.03.02.02.03.05.03.08,0,.03-.01.06-.03.08-.02.02-.06.03-.11.03H.15c-.05,0-.09-.01-.11-.03-.02-.02-.03-.05-.03-.08,0-.03.01-.06.03-.08.02-.02.06-.03.11-.03h.17l.98-2.65h-.66c-.05,0-.09-.01-.11-.03-.02-.02-.03-.05-.03-.08s.01-.06.03-.08c.02-.02.06-.03.11-.03h1.12l1.08,2.87h.17c.05,0,.09,0,.11.03.02.02.03.05.03.08,0,.03-.01.06-.03.08-.02.02-.06.03-.11.03h-.83c-.05,0-.09-.01-.12-.03-.02-.02-.04-.05-.04-.08,0-.03.01-.06.04-.08.02-.02.06-.03.12-.03h.42l-.3-.81ZM2.22,23.94l-.61-1.61h-.08l-.59,1.61h1.29Z"/>
      <path class="cls-1" d="M4.56,22.91v.56c.29-.26.5-.43.65-.5s.28-.11.4-.11c.13,0,.25.04.37.13s.17.16.17.2c0,.03-.01.06-.03.08-.02.02-.05.03-.08.03-.02,0-.03,0-.04,0-.01,0-.04-.03-.07-.06-.06-.06-.12-.1-.16-.13s-.09-.03-.13-.03c-.1,0-.21.04-.35.12-.14.08-.37.27-.71.57v1.22h.98c.05,0,.09,0,.12.03.02.02.03.05.03.08,0,.03-.01.06-.03.08-.02.02-.06.03-.12.03h-1.74c-.05,0-.09-.01-.11-.03-.02-.02-.03-.05-.03-.08,0-.03.01-.06.03-.08.02-.02.06-.03.12-.03h.54v-1.85h-.41c-.05,0-.09-.01-.11-.03-.02-.02-.04-.05-.04-.08s.01-.06.03-.08c.02-.02.06-.03.12-.03h.63Z"/>
      <path class="cls-1" d="M9,23.13v-.07c0-.05,0-.09.03-.12s.05-.03.08-.03c.03,0,.06.01.08.03s.03.06.03.12v.5c0,.05-.01.09-.03.12-.02.02-.05.03-.08.03-.03,0-.05,0-.08-.03-.02-.02-.03-.05-.04-.1-.01-.12-.09-.24-.25-.36-.15-.11-.36-.17-.62-.17-.33,0-.58.1-.75.31s-.26.44-.26.71c0,.29.09.52.28.71.19.19.43.28.73.28.17,0,.35-.03.53-.1s.34-.17.49-.31c.04-.04.07-.05.1-.05.03,0,.05.01.08.03.02.02.03.05.03.08,0,.08-.09.17-.27.29-.29.19-.61.28-.96.28s-.65-.11-.88-.34c-.23-.23-.34-.52-.34-.87s.12-.65.35-.89c.24-.24.53-.35.89-.35s.62.1.86.3Z"/>
      <path class="cls-1" d="M10.59,21.88v1.37c.14-.15.28-.26.41-.32.13-.06.27-.09.43-.09.17,0,.32.03.44.09.12.06.22.15.3.28.08.13.12.26.12.4v1.38h.25c.05,0,.09,0,.11.03.02.02.03.05.03.08,0,.03-.01.06-.03.08-.02.02-.06.03-.11.03h-.72c-.05,0-.09-.01-.12-.03s-.03-.05-.03-.08c0-.03.01-.06.03-.08.02-.02.06-.03.12-.03h.25v-1.36c0-.16-.06-.29-.17-.4s-.28-.16-.48-.16c-.16,0-.3.04-.41.12-.08.06-.22.19-.41.4v1.41h.25c.05,0,.09,0,.11.03.02.02.03.05.03.08,0,.03-.01.06-.03.08-.02.02-.06.03-.11.03h-.72c-.05,0-.09-.01-.11-.03-.02-.02-.03-.05-.03-.08,0-.03.01-.06.03-.08.02-.02.06-.03.11-.03h.25v-2.87h-.3c-.05,0-.09-.01-.11-.03-.02-.02-.03-.05-.03-.08,0-.03.01-.06.03-.08.02-.02.06-.03.11-.03h.52Z"/>
      <path class="cls-1" d="M14.68,22.91v2.07h.87c.05,0,.09,0,.12.03.02.02.03.05.03.08,0,.03-.01.06-.03.08-.02.02-.06.03-.12.03h-1.97c-.05,0-.09-.01-.11-.03-.02-.02-.03-.05-.03-.08,0-.03.01-.06.03-.08.02-.02.06-.03.11-.03h.87v-1.84h-.65c-.05,0-.09-.01-.12-.03-.02-.02-.04-.05-.04-.08s.01-.06.03-.08c.02-.02.06-.03.12-.03h.87ZM14.68,21.77v.57h-.33v-.57h.33Z"/>
      <path class="cls-1" d="M17.36,22.91h1.2c.05,0,.09.01.11.03.02.02.03.05.03.08s-.01.06-.03.08c-.02.02-.06.03-.11.03h-1.2v1.48c0,.13.05.24.15.32.1.09.25.13.45.13.15,0,.31-.02.49-.07.17-.04.31-.1.41-.15.04-.02.06-.03.09-.03.03,0,.05.01.07.03.02.02.03.05.03.08,0,.03-.01.05-.03.07-.06.06-.19.12-.41.19s-.43.1-.62.1c-.26,0-.46-.06-.62-.18s-.23-.29-.23-.49v-1.48h-.41c-.05,0-.09-.01-.11-.03-.02-.02-.03-.05-.03-.08s.01-.06.03-.08c.02-.02.06-.03.11-.03h.41v-.65c0-.05.01-.09.03-.11.02-.02.05-.03.08-.03.03,0,.06.01.08.03.02.02.03.06.03.11v.65Z"/>
      <path class="cls-1" d="M22.26,24.1h-2.26c.04.29.16.52.36.69.2.18.45.26.75.26.17,0,.34-.03.52-.08.18-.05.33-.13.44-.22.03-.03.06-.04.09-.04.03,0,.05.01.07.03s.03.05.03.08-.01.06-.04.09c-.08.09-.23.17-.45.25s-.44.12-.67.12c-.38,0-.7-.12-.95-.37-.25-.25-.38-.55-.38-.9,0-.32.12-.6.36-.83.24-.23.53-.35.89-.35s.66.12.9.36c.23.24.35.54.35.92ZM22.04,23.88c-.04-.25-.16-.44-.35-.6s-.41-.23-.67-.23-.48.08-.67.23c-.19.15-.3.35-.35.6h2.03Z"/>
      <path class="cls-1" d="M25.23,23.13v-.07c0-.05,0-.09.03-.12s.05-.03.08-.03c.03,0,.06.01.08.03s.03.06.03.12v.5c0,.05-.01.09-.03.12-.02.02-.05.03-.08.03-.03,0-.05,0-.08-.03-.02-.02-.03-.05-.04-.1-.01-.12-.09-.24-.25-.36-.15-.11-.36-.17-.62-.17-.33,0-.58.1-.75.31s-.26.44-.26.71c0,.29.09.52.28.71.19.19.43.28.73.28.17,0,.35-.03.53-.1s.34-.17.49-.31c.04-.04.07-.05.1-.05.03,0,.05.01.08.03.02.02.03.05.03.08,0,.08-.09.17-.27.29-.29.19-.61.28-.96.28s-.65-.11-.88-.34c-.23-.23-.34-.52-.34-.87s.12-.65.35-.89c.24-.24.53-.35.89-.35s.62.1.86.3Z"/>
      <path class="cls-1" d="M27.1,22.91h1.2c.05,0,.09.01.11.03.02.02.03.05.03.08s-.01.06-.03.08c-.02.02-.06.03-.11.03h-1.2v1.48c0,.13.05.24.15.32.1.09.25.13.45.13.15,0,.31-.02.49-.07.17-.04.31-.1.41-.15.04-.02.06-.03.09-.03.03,0,.05.01.07.03.02.02.03.05.03.08,0,.03-.01.05-.03.07-.06.06-.19.12-.41.19s-.43.1-.62.1c-.26,0-.46-.06-.62-.18s-.23-.29-.23-.49v-1.48h-.41c-.05,0-.09-.01-.11-.03-.02-.02-.03-.05-.03-.08s.01-.06.03-.08c.02-.02.06-.03.11-.03h.41v-.65c0-.05.01-.09.03-.11.02-.02.05-.03.08-.03.03,0,.06.01.08.03.02.02.03.06.03.11v.65Z"/>
      <path class="cls-1" d="M35.95,23.38l-2.83,1.58s-.08.04-.1.04c-.04,0-.07-.01-.09-.04-.03-.03-.04-.06-.04-.09,0-.05.04-.1.11-.14l2.43-1.35-2.42-1.35c-.07-.04-.11-.08-.11-.14,0-.04.01-.07.04-.09.03-.03.06-.04.09-.04.02,0,.06.01.1.04l2.83,1.58Z"/>
      <path class="cls-1" d="M40.26,24.97v-2.65h-.19c-.05,0-.09-.01-.11-.03-.02-.02-.04-.05-.04-.08s.01-.06.04-.08c.02-.02.06-.03.11-.03h1.19c.19,0,.36.04.51.12s.27.17.35.26c.14.17.25.34.32.53.05.14.08.3.08.48v.31c0,.23-.05.45-.15.66-.1.21-.27.4-.5.56-.17.12-.38.17-.6.17h-1.19c-.05,0-.09-.01-.11-.03-.02-.02-.04-.05-.04-.08,0-.03.01-.06.04-.08.02-.02.06-.03.11-.03h.19ZM40.48,24.97h.81c.19,0,.36-.06.52-.18.16-.12.29-.27.37-.44.08-.17.12-.34.12-.5v-.4c0-.14-.02-.26-.07-.37-.06-.16-.15-.31-.27-.45-.06-.08-.16-.15-.28-.21-.12-.06-.26-.1-.4-.1h-.81v2.65Z"/>
      <path class="cls-1" d="M45.58,24.1h-2.26c.04.29.16.52.36.69.2.18.45.26.75.26.17,0,.34-.03.52-.08.18-.05.33-.13.44-.22.03-.03.06-.04.09-.04.03,0,.05.01.07.03s.03.05.03.08-.01.06-.04.09c-.08.09-.23.17-.45.25s-.44.12-.67.12c-.38,0-.7-.12-.95-.37-.25-.25-.38-.55-.38-.9,0-.32.12-.6.36-.83.24-.23.53-.35.89-.35s.66.12.9.36c.23.24.35.54.35.92ZM45.35,23.88c-.04-.25-.16-.44-.35-.6s-.41-.23-.67-.23-.48.08-.67.23c-.19.15-.3.35-.35.6h2.03Z"/>
      <path class="cls-1" d="M47.82,25.19h-.38l-.91-2.06h-.23c-.05,0-.09-.01-.11-.03-.02-.02-.03-.05-.03-.08s.01-.06.03-.08c.02-.02.06-.03.11-.03h.83c.05,0,.09.01.11.03.02.02.03.05.03.08s-.01.06-.03.08c-.02.02-.06.03-.11.03h-.37l.81,1.84h.1l.8-1.84h-.37c-.05,0-.09-.01-.11-.03-.02-.02-.03-.05-.03-.08s.01-.06.03-.08c.02-.02.06-.03.11-.03h.83c.05,0,.09.01.11.03.02.02.03.05.03.08s-.01.06-.03.08c-.02.02-.06.03-.11.03h-.22l-.9,2.06Z"/>
      <path class="cls-1" d="M52.07,24.1h-2.26c.04.29.16.52.36.69.2.18.45.26.75.26.17,0,.34-.03.52-.08.18-.05.33-.13.44-.22.03-.03.06-.04.09-.04.03,0,.05.01.07.03s.03.05.03.08-.01.06-.04.09c-.08.09-.23.17-.45.25s-.44.12-.67.12c-.38,0-.7-.12-.95-.37-.25-.25-.38-.55-.38-.9,0-.32.12-.6.36-.83.24-.23.53-.35.89-.35s.66.12.9.36c.23.24.35.54.35.92ZM51.84,23.88c-.04-.25-.16-.44-.35-.6s-.41-.23-.67-.23-.48.08-.67.23c-.19.15-.3.35-.35.6h2.03Z"/>
      <path class="cls-1" d="M54.23,21.88v3.09h.87c.05,0,.09,0,.12.03.02.02.03.05.03.08,0,.03-.01.06-.03.08-.02.02-.06.03-.12.03h-1.97c-.05,0-.09-.01-.11-.03s-.03-.05-.03-.08c0-.03.01-.06.03-.08.02-.02.06-.03.11-.03h.87v-2.87h-.64c-.05,0-.09-.01-.11-.03-.02-.02-.04-.05-.04-.08,0-.03.01-.06.03-.08.02-.02.06-.03.12-.03h.86Z"/>
      <path class="cls-1" d="M58.6,24.06c0,.34-.12.63-.36.87-.24.24-.53.36-.88.36s-.64-.12-.88-.36-.36-.53-.36-.87.12-.63.36-.87c.24-.24.53-.36.88-.36s.63.12.88.36c.24.24.36.53.36.87ZM58.38,24.06c0-.28-.1-.52-.3-.71-.2-.2-.44-.29-.72-.29s-.52.1-.72.29c-.2.2-.3.43-.3.71s.1.51.3.71.44.3.72.3.52-.1.72-.29.3-.43.3-.71Z"/>
      <path class="cls-1" d="M59.77,22.91v.4c.13-.16.27-.28.43-.36s.33-.12.54-.12c.22,0,.42.05.6.15.19.1.33.24.43.43.1.18.15.37.15.57,0,.32-.11.59-.34.82-.23.23-.51.34-.84.34-.4,0-.72-.16-.96-.48v1.34h.54c.05,0,.09.01.11.03.02.02.04.05.04.08s-.01.06-.04.08c-.02.02-.06.03-.11.03h-1.06c-.05,0-.09,0-.11-.03-.02-.02-.03-.05-.03-.08s.01-.06.03-.08c.02-.02.06-.03.11-.03h.3v-2.86h-.3c-.05,0-.09-.01-.11-.03-.02-.02-.03-.05-.03-.08s.01-.06.03-.08c.02-.02.06-.03.11-.03h.52ZM61.7,23.98c0-.26-.09-.47-.28-.66s-.41-.27-.68-.27-.5.09-.68.27-.28.4-.28.66.09.47.28.66.42.27.68.27.49-.09.68-.27c.19-.18.28-.4.28-.66Z"/>
      <path class="cls-1" d="M65.06,24.1h-2.26c.04.29.16.52.36.69.2.18.45.26.75.26.17,0,.34-.03.52-.08.18-.05.33-.13.44-.22.03-.03.06-.04.09-.04.03,0,.05.01.07.03s.03.05.03.08-.01.06-.04.09c-.08.09-.23.17-.45.25s-.44.12-.67.12c-.38,0-.7-.12-.95-.37-.25-.25-.38-.55-.38-.9,0-.32.12-.6.36-.83.24-.23.53-.35.89-.35s.66.12.9.36c.23.24.35.54.35.92ZM64.83,23.88c-.04-.25-.16-.44-.35-.6s-.41-.23-.67-.23-.48.08-.67.23c-.19.15-.3.35-.35.6h2.03Z"/>
      <path class="cls-1" d="M66.84,22.91v.56c.29-.26.5-.43.65-.5s.28-.11.4-.11c.13,0,.25.04.37.13s.17.16.17.2c0,.03-.01.06-.03.08-.02.02-.05.03-.08.03-.02,0-.03,0-.04,0-.01,0-.04-.03-.07-.06-.06-.06-.12-.1-.16-.13s-.09-.03-.13-.03c-.1,0-.21.04-.35.12-.14.08-.37.27-.71.57v1.22h.98c.05,0,.09,0,.12.03.02.02.03.05.03.08,0,.03-.01.06-.03.08-.02.02-.06.03-.12.03h-1.74c-.05,0-.09-.01-.11-.03-.02-.02-.03-.05-.03-.08,0-.03.01-.06.03-.08.02-.02.06-.03.12-.03h.54v-1.85h-.41c-.05,0-.09-.01-.11-.03-.02-.02-.04-.05-.04-.08s.01-.06.03-.08c.02-.02.06-.03.12-.03h.63Z"/>
    </g>
    <g>
      <path class="cls-1" d="M36.49,12.46v5.87h1.69c.12,0,.2.02.25.07s.08.1.08.18c0,.07-.03.13-.08.18s-.13.07-.25.07h-3.87c-.12,0-.2-.02-.25-.07s-.08-.11-.08-.18c0-.07.03-.13.08-.18s.13-.07.25-.07h1.69v-5.87h-1.69c-.12,0-.2-.02-.25-.07s-.08-.1-.08-.18.03-.13.08-.18.13-.07.25-.07h3.87c.12,0,.2.02.25.07s.08.1.08.18-.03.13-.08.18-.13.07-.25.07h-1.69Z"/>
      <path class="cls-1" d="M45.6,12.64v-.35c0-.12.02-.2.07-.25s.1-.08.18-.08.13.03.18.08.07.13.07.25v1.37c0,.12-.02.21-.07.26s-.1.08-.18.08c-.07,0-.12-.02-.17-.07s-.07-.12-.08-.23c-.02-.33-.2-.62-.53-.87-.45-.35-.97-.52-1.55-.52-.38,0-.74.08-1.07.25-.25.12-.45.27-.6.45-.26.3-.46.64-.62,1.01-.11.27-.16.58-.16.93v.86c0,.73.27,1.37.8,1.91s1.15.81,1.85.81c.42,0,.8-.09,1.13-.28s.66-.46.97-.83c.07-.08.14-.12.22-.12.07,0,.13.02.17.06s.06.1.06.16c0,.09-.08.23-.25.41-.32.36-.68.63-1.08.81s-.81.27-1.22.27c-.36,0-.72-.07-1.08-.21-.28-.11-.51-.23-.7-.37s-.41-.38-.68-.71-.45-.64-.55-.93-.15-.59-.15-.93v-1c0-.48.13-.98.39-1.49s.62-.89,1.07-1.17.94-.41,1.47-.41c.81,0,1.51.28,2.1.83Z"/>
      <path class="cls-1" d="M52.31,15.5h-3.26v2.82h.66c.12,0,.2.02.25.07s.08.1.08.18c0,.07-.03.13-.08.18s-.13.07-.25.07h-1.71c-.12,0-.2-.02-.25-.07s-.08-.11-.08-.18c0-.07.03-.13.08-.18s.13-.07.25-.07h.56v-5.87h-.3c-.12,0-.21-.02-.26-.07s-.08-.1-.08-.18.03-.13.08-.18.14-.07.26-.07h1.46c.12,0,.2.02.25.07s.08.1.08.18-.03.13-.08.18-.13.07-.25.07h-.66v2.55h3.26v-2.55h-.66c-.12,0-.2-.02-.25-.07s-.08-.1-.08-.18.02-.13.07-.18.13-.07.25-.07h1.46c.12,0,.21.02.26.07s.08.1.08.18-.03.13-.08.18-.14.07-.26.07h-.3v5.87h.56c.12,0,.2.02.25.07s.08.1.08.18c0,.07-.03.13-.08.18s-.13.07-.25.07h-1.71c-.12,0-.2-.02-.25-.07s-.08-.11-.08-.18c0-.07.02-.13.07-.18s.13-.07.25-.07h.66v-2.82Z"/>
      <path class="cls-1" d="M59.46,16.53h-3.23l-.66,1.8h.94c.12,0,.2.02.25.07s.08.1.08.18c0,.07-.03.13-.08.18s-.13.07-.25.07h-1.84c-.12,0-.2-.02-.25-.07s-.08-.11-.08-.18c0-.07.03-.13.08-.18s.13-.07.25-.07h.38l2.17-5.87h-1.45c-.12,0-.2-.02-.25-.07s-.08-.1-.08-.18.03-.13.08-.18.13-.07.25-.07h2.48l2.4,6.36h.38c.12,0,.2.02.25.07s.08.1.08.18c0,.07-.03.13-.08.18s-.13.07-.25.07h-1.83c-.12,0-.21-.02-.26-.07s-.08-.11-.08-.18c0-.07.03-.13.08-.18s.14-.07.26-.07h.94l-.67-1.8ZM59.27,16.04l-1.36-3.58h-.18l-1.32,3.58h2.86Z"/>
      <path class="cls-1" d="M64.19,12.46v5.87h3.27v-1.96c0-.12.02-.2.07-.25s.11-.08.18-.08c.07,0,.13.02.18.07s.07.13.07.25v2.45h-5.44c-.12,0-.2-.02-.25-.07s-.08-.11-.08-.18c0-.07.03-.13.08-.18s.13-.07.25-.07h1.17v-5.87h-1.17c-.12,0-.2-.02-.25-.07s-.08-.1-.08-.18.03-.13.08-.18.13-.07.25-.07h2.84c.12,0,.2.02.25.07s.08.1.08.18-.03.13-.08.18-.13.07-.25.07h-1.17Z"/>
    </g>
    <path class="cls-1" d="M13.95,0l9.69,18.82h-2.8L12.9,2.96h-.08l-7.95,15.86h-2.8L11.72,0h2.23Z"/>
    <path class="cls-1" d="M22.8,0l9.69,18.82h-2.8l-7.95-15.86h-.08l-7.95,15.86h-2.8L20.57,0h2.23Z"/>
  </g>
</svg>