<?xml version="1.0" encoding="UTF-8"?>
<svg id="Layer_2" data-name="Layer 2" xmlns="http://www.w3.org/2000/svg" viewBox="0 0 323.44 362.76">
  <defs>
    <style>
      .cls-1 {
        fill: #f67280;
      }
    </style>
  </defs>
  <g id="Layer_2-2" data-name="Layer 2">
    <g>
      <path class="cls-1" d="M163.63,0l10.92,3.56c39.4,24.39,80.85,45.57,120.36,69.73,16.34,9.99,25.65,12.58,27.36,34.33,3.74,47.8-2.93,100.37,0,148.68-1.11,12.39-3.91,19.18-14,26.29-40.97,28.87-94.07,51.2-136.81,78.46-3.71,1.12-7.06,1.78-10.99,1.7-17.33-.33-44.07-25.44-61.02-31.59-.55-2.86.18-2,1.6-2.78,6.37-3.53,15.42-4.91,21.68-9.78,3.84,0,28.34,18.17,34.96,20.45,2.1.72,3.73,1.53,5.98.43l130.03-75.24,4.59-5.49-.59-156.75L160.47,23.18,24.82,100.68l-1.61,2.46v156.34c.42,1.66,1.55,2.49,2.79,3.51,4.19,3.47,16.76,10,22.25,13,11.48,6.28,23.6,15.63,37.21,9.09,3.2-1.54,8.95-7.92,8.95-11.2V116.48l1.89-1.89h20.14l1.89,1.89v163.7c0,1.69-3.68,10.65-4.81,12.82-7.82,14.96-25.07,19.77-41,17.9-12.02-1.41-52.79-22.76-62.34-30.81-6.5-5.48-7.77-11.76-10.17-19.42V103.26c2.61-10.12,4.68-15.27,13.19-21.44C53.11,52.88,106.53,31.98,147.67,3.55c2.99-.84,8.2-3.18,10.92-3.55h5.03Z"/>
      <path class="cls-1" d="M241.04,159.92c-3.98-8.96-4.5-16.03-13.6-21.65-12.62-7.78-49.55-8.89-60.69,1.47-6.17,5.74-6.56,18.02,1.58,22.4,29.74,15.99,106.13-2.42,99.78,55.08-5.97,54.02-130.97,55.54-135.8-3.95-1.12-13.84,13.32-9.2,23.01-8.15,3.29,15.38,6.8,22.68,22.62,26.74s60.11,6.43,64.42-13.94c2.45-11.55-2.55-16.4-13-19.88-32.23-10.75-98.61,1.75-92.03-52.46,5.59-46.11,102.85-47.43,120.92-9.18,1.28,2.71,8.03,23.52,2.92,23.52h-20.14Z"/>
    </g>
  </g>
</svg>