<?xml version="1.0" encoding="UTF-8"?>
<svg id="Layer_2" data-name="Layer 2" xmlns="http://www.w3.org/2000/svg" viewBox="0 0 384 384">
  <defs>
    <style>
      .cls-1 {
        fill: #fdbd03;
      }

      .cls-2 {
        fill: #fdfdfe;
      }
    </style>
  </defs>
  <g id="Layer_1-2" data-name="Layer 1">
    <path class="cls-2" d="M384,211.5v172.5h-174c12.02-3.16,24.33-4.48,36.32-7.93,60.37-17.35,110.86-67.3,129.1-127.4,3.72-12.24,4.97-24.95,8.57-37.18Z"/>
    <path class="cls-2" d="M211.5,0h172.5v172.5c-3.61-12.22-4.86-24.93-8.57-37.18-18.26-60.14-68.68-110.04-129.1-127.4-11.51-3.31-23.4-4.48-34.82-7.93Z"/>
    <path class="cls-2" d="M172.5,384H0v-172.5c3.43,11.43,4.65,23.3,7.93,34.82,17.17,60.36,67.43,110.88,127.43,129.07,12.25,3.71,24.91,5.05,37.14,8.61Z"/>
    <path class="cls-2" d="M171,0c-11.63,3.83-23.84,5.09-35.64,8.61C75.57,26.43,24.96,77.72,7.93,137.68c-3.27,11.52-4.51,23.39-7.93,34.82V0h171Z"/>
    <g>
      <path class="cls-1" d="M211.5,0c11.42,3.45,23.31,4.62,34.82,7.93,60.43,17.35,110.85,67.26,129.1,127.4,3.72,12.24,4.97,24.95,8.57,37.18v39c-3.61,12.22-4.86,24.93-8.57,37.18-18.24,60.09-68.73,110.04-129.1,127.4-11.99,3.45-24.31,4.77-36.32,7.93h-37.5c-12.23-3.56-24.9-4.9-37.14-8.61-60-18.19-110.26-68.71-127.43-129.07-3.28-11.52-4.5-23.39-7.93-34.82v-39c3.42-11.43,4.66-23.3,7.93-34.82C24.96,77.72,75.57,26.43,135.36,8.61c11.8-3.52,24.01-4.78,35.64-8.61h40.5ZM97.5,132c-3.4,7.22,2.5,19.6,5.27,26.98,22.45,59.6,66.97,111.47,127.85,133.15,6.62,2.36,25.05,8.87,31.04,7.9,3.44-.55,15.28-13.36,17.62-16.98,4.35-6.71,11.26-21.87,7.21-29.54,2.45-9.41,2.25-10.52-3.74-18.01-7.24-9.06-29.87-24.11-41.69-20.67-5.74,1.67-18.28,16.28-26.19,17.43-14.39,2.09-53.92-41.39-58.89-55.25,6.27-8.64,17.82-16.77,18.11-27.79.05-1.86-1.61-3.5-1.61-3.71.01-2.31,1.76-4.4,1.15-9.33-1.57-12.7-11.58-24.97-21.44-32.63-11.63-9.03-15.84-8.93-29.6-4.17-14.66,5.07-29.93,15.29-25.12,32.63Z"/>
      <path class="cls-1" d="M286.5,253.5c4.05,7.67-2.86,22.83-7.21,29.54-2.35,3.62-14.18,16.43-17.62,16.98-5.99.96-24.42-5.55-31.04-7.9-60.88-21.68-105.41-73.55-127.85-133.15-2.78-7.37-8.68-19.76-5.27-26.98,17.34,62.44,69.3,123.62,130.1,146.65,5.57,2.11,28.08,9.78,32.52,9.34,10.95-1.09,23.82-24.65,26.38-34.49Z"/>
      <g>
        <path class="cls-2" d="M172.5,145.5c-8.24,7.61-20.7,19.79-16.5,31.5,4.97,13.85,44.5,57.33,58.89,55.25,7.91-1.15,20.44-15.76,26.19-17.43,11.82-3.44,34.45,11.61,41.69,20.67,5.98,7.49,6.19,8.6,3.74,18.01s-15.44,33.4-26.38,34.49c-4.43.44-26.95-7.23-32.52-9.34-60.8-23.03-112.76-84.21-130.1-146.65-4.82-17.34,10.45-27.57,25.12-32.63,13.76-4.76,17.97-4.86,29.6,4.17,9.86,7.66,19.87,19.93,21.44,32.63.61,4.94-1.14,7.02-1.15,9.33Z"/>
        <path class="cls-1" d="M156,177c-4.2-11.71,8.26-23.89,16.5-31.5,0,.2,1.65,1.85,1.61,3.71-.29,11.02-11.84,19.15-18.11,27.79Z"/>
      </g>
    </g>
  </g>
</svg>