<?xml version="1.0" encoding="UTF-8"?>
<svg id="Layer_2" data-name="Layer 2" xmlns="http://www.w3.org/2000/svg" viewBox="0 0 416.68 416.68">
  <defs>
    <style>
      .cls-1 {
        fill: #f67280;
      }

      .cls-2 {
        fill: #fff;
      }
    </style>
  </defs>
  <g id="Layer_2-2" data-name="Layer 2">
    <path class="cls-2" d="M.16,204.44V0h416.52v416.68H.16v-203.92c1.56,15.87,14.76,29.89,27.1,38.7,17.64,12.59,39.45,20.7,60.27,26.33-1.45,7.07-3.31,14.1-4.52,21.23-4.68,27.55-7.42,72.38,20.48,88.95,31.73,18.85,74.29-12.75,97.41-33.44,1.54-1.38,5.86-6.7,7.51-6.54.85.08,10.01,9.23,11.72,10.7,22.59,19.45,62.65,47.15,92.73,29.28,27.84-16.54,25.15-61.48,20.48-88.95-1.21-7.13-3.07-14.16-4.52-21.23,17.52-4.6,35.49-11.19,51.12-20.39,45.33-26.71,49.92-65.83,3.96-95.31-16.79-10.77-35.91-17.3-54.86-23.18,3.85-16.6,6.68-32.58,7.07-49.69,1.54-67.04-40.85-82.34-93.88-47.61-12.2,7.99-23.14,17.73-33.86,27.54-20.55-17.91-44.65-39.3-72.36-44.55-32.7-6.19-51.45,14.7-55.16,45.43-2.79,23.16,1.45,46.36,6.48,68.88-22.3,6.97-45.07,14.92-63.69,29.43C12.55,176.96,1.6,189.85.16,204.44Z"/>
    <path class="cls-1" d="M.16,204.44c1.44-14.59,12.39-27.48,23.45-36.1,18.62-14.51,41.4-22.46,63.69-29.43-5.03-22.52-9.28-45.71-6.48-68.88,3.71-30.74,22.46-51.62,55.16-45.43,27.71,5.25,51.81,26.63,72.36,44.55,10.72-9.82,21.66-19.56,33.86-27.54,53.03-34.73,95.42-19.43,93.88,47.61-.39,17.12-3.22,33.1-7.07,49.69,18.95,5.87,38.08,12.41,54.86,23.18,45.96,29.48,41.37,68.6-3.96,95.31-15.62,9.21-33.6,15.79-51.12,20.39,1.45,7.07,3.31,14.1,4.52,21.23,4.67,27.47,7.36,72.41-20.48,88.95-30.08,17.87-70.14-9.83-92.73-29.28-1.71-1.47-10.87-10.62-11.72-10.7-1.64-.16-5.97,5.16-7.51,6.54-23.12,20.7-65.68,52.3-97.41,33.44-27.89-16.57-25.16-61.4-20.48-88.95,1.21-7.13,3.07-14.16,4.52-21.23-20.82-5.63-42.63-13.74-60.27-26.33C14.92,242.66,1.72,228.63.16,212.76c-.21-2.16-.21-6.16,0-8.32ZM104.16,134.73c18.48-3.99,37.19-6.89,56.03-8.71,11.2-14.88,22.43-29.77,35.24-43.32v-1.56c-7.58-6.64-14.87-13.65-22.98-19.68-22.85-16.98-63.82-38.6-73.24,4.07-5.01,22.68.38,46.92,4.95,69.19ZM312.16,134.73c1.02-6.62,2.86-13.07,4-19.67,6.21-36.09,6.21-92.44-47.34-68.69-18.07,8.02-33.75,21.88-48.14,35.11l.22,1.23c12.86,13.51,23.96,28.5,35.23,43.32,18.84,1.84,37.58,4.63,56.04,8.71ZM233.12,124.32l-24.77-29.61-25.15,29.61h49.92ZM207.99,141.17c-6.76,0-13.6.69-20.39.3l-17.69,1.55c-8.97,13.22-17.58,26.76-25.27,40.78-3.35,6.1-9.98,17.25-11.99,23.39-.27.81-.48,1.1-.31,2.06.32,1.9,5.62,11.41,6.92,13.93,9.16,17.71,19.73,34.78,30.95,51.23,25.15,1.92,50.42,1.66,75.57.16.98-.3,6.27-8.73,7.33-10.35,8.51-12.96,16.85-27.27,23.98-41.04,1.65-3.2,5.99-10.6,6.78-13.53.16-.57.35-1.09.14-1.69-10.83-22.59-23.4-44.31-37.58-64.93l-17.69-1.55c-6.9.39-13.86-.3-20.73-.3ZM147.32,145.14l-37.96,6.24,13.01,36.41,24.95-42.65ZM306.96,151.38l-37.96-6.24,24.7,42.65,13.26-36.41ZM92.68,156.1c-.67-.58-7.24,1.63-8.55,2.03-19.95,6.06-57.72,21.35-65.13,42.52-8.27,23.62,23.01,41.21,40.61,49.13,10.49,4.72,21.99,8.61,33.11,11.36,4.64-18.23,12.88-35.36,19.78-52.81-7.34-17.1-14.74-34.29-19.82-52.23ZM323.6,261.14c18.96-5.07,39.77-12.48,55.8-24.03,41.74-30.06,7.69-56.69-24.77-70.74-9.75-4.22-19.97-7.69-30.26-10.35l-.73.08c-5.06,17.95-12.52,35.11-19.82,52.23,6.9,17.46,15.14,34.59,19.78,52.81ZM123.39,229.41c-1.19-.25-.83.13-1.16.66-1.65,2.63-3.69,8.98-4.94,12.21-2.98,7.7-5.76,15.56-7.93,23.54l37.96,6.24-23.93-42.65ZM293.95,229.41l-24.95,42.65,37.96-6.24-13.01-36.41ZM104.16,282.47c-9.04,34.87-19.11,115.35,42.83,88.36,18.1-7.89,34.68-21.94,48.66-35.63-12.2-14.38-24.35-28.78-35.33-44.14-18.9-1.76-37.57-4.93-56.15-8.59ZM312.16,282.47c-18.58,3.64-37.25,6.87-56.15,8.59-11,15.34-23.11,29.77-35.33,44.14,20.69,21.99,84.49,71.02,96.43,15.94,4.9-22.59-.3-46.5-4.95-68.67ZM233.12,292.36c-.99.07-1.78.5-2.83.55-9.51.43-19.17.03-28.61-.05-6.14-.06-12.44.48-18.48-.49l13.53,17.41,11.68,12.76,24.7-30.17Z"/>
    <ellipse class="cls-1" cx="208.16" cy="208.6" rx="37.06" ry="37.07"/>
  </g>
</svg>