<?xml version="1.0" encoding="UTF-8"?>
<svg id="Layer_2" xmlns="http://www.w3.org/2000/svg" xmlns:xlink="http://www.w3.org/1999/xlink" viewBox="0 0 360.96 59.62">
  <defs>
    <style>
      .cls-1 {
        filter: url(#drop-shadow-2);
      }

      .cls-2 {
        filter: url(#drop-shadow-1);
      }

      .cls-3 {
        filter: url(#drop-shadow-3);
      }

      .cls-4 {
        fill:rgb(255, 255, 255);
      }
    </style>
    <filter id="drop-shadow-1" filterUnits="userSpaceOnUse">
      <feOffset dx="7" dy="7"/>
      <feGaussianBlur result="blur" stdDeviation="5"/>
      <feFlood flood-color="#231f20" flood-opacity=".1"/>
      <feComposite in2="blur" operator="in"/>
      <feComposite in="SourceGraphic"/>
    </filter>
    <filter id="drop-shadow-2" filterUnits="userSpaceOnUse">
      <feOffset dx="7" dy="7"/>
      <feGaussianBlur result="blur-2" stdDeviation="5"/>
      <feFlood flood-color="#231f20" flood-opacity=".1"/>
      <feComposite in2="blur-2" operator="in"/>
      <feComposite in="SourceGraphic"/>
    </filter>
    <filter id="drop-shadow-3" filterUnits="userSpaceOnUse">
      <feOffset dx="2.15" dy="2.15"/>
      <feGaussianBlur result="blur-3" stdDeviation="1.54"/>
      <feFlood flood-color="#231f20" flood-opacity=".1"/>
      <feComposite in2="blur-3" operator="in"/>
      <feComposite in="SourceGraphic"/>
    </filter>
  </defs>
  <g id="Layer_1-2" data-name="Layer_1">
    <g class="cls-2">
      <path class="cls-4" d="M29.86,35.73V4.12l-11.54,31.61h-3.83L3.05,4.07v31.66H0V.63h5.04l11.49,31.85L28.02.63h4.94v35.1h-3.1Z"/>
      <path class="cls-4" d="M47.55,35.73V.63h3.25v35.1h-3.25Z"/>
      <path class="cls-4" d="M58.55,18.81c0-12.17,6.5-18.81,16.09-18.81,7.17,0,12.12,3.59,12.75,11.44l-3.05.29c-.82-5.67-3.44-8.92-9.7-8.92-7.9,0-12.8,5.33-12.8,15.61s4.51,15.17,12.07,15.17c5.87,0,9.07-2.47,10.33-7.95l2.86.63c-1.31,7.47-7.37,10.04-13.43,10.04-10.81,0-15.12-7.17-15.12-17.5Z"/>
      <path class="cls-4" d="M116.24,35.73v-16.63h-18.52v16.63h-3.25V.63h3.25v15.61h18.52V.63h3.25v35.1h-3.25Z"/>
      <path class="cls-4" d="M155.26,35.73h-3.59l-3.78-11.29h-14.16l-3.78,11.29h-3.2L138.68.63h4.46l12.12,35.1ZM134.7,21.57h12.26l-6.11-18.28-6.16,18.28Z"/>
      <path class="cls-4" d="M181.87,32.92v2.81h-19.34V.63h3.25v32.29h16.09Z"/>
    </g>
    <g class="cls-1">
      <path class="cls-4" d="M209.4,35.73h-1.5l-4.31-12.8h-14.74l-4.36,12.8h-1.41L195.29.63h1.84l12.26,35.1ZM189.33,21.77h13.77l-6.88-20.17-6.88,20.17Z"/>
      <path class="cls-4" d="M242.5,35.73l-9.07-16.05h-11.25v16.05h-1.21V.63h10.18c8.73,0,11.1,3.73,11.1,8.92,0,5.72-2.96,8.97-7.56,9.94l9.31,16.24h-1.5ZM240.9,9.6c0-6.5-4.36-7.8-10.57-7.8h-8.14v16.72h9.06c5.87,0,9.65-2.38,9.65-8.92Z"/>
      <path class="cls-4" d="M281.82,35.73V2.18h-.15l-13.38,33.55h-1.41l-13.38-33.59h-.1v33.59h-1.26V.63h2.04l13.38,33.59h.05L280.99.63h2.08v35.1h-1.26Z"/>
      <path class="cls-4" d="M292.81,18.03c0-10.47,5.77-18.03,15.75-18.03s14.88,7.56,14.88,17.31c0,11.44-5.58,19-15.56,19s-15.08-7.76-15.08-18.28ZM322.14,17.35c0-10.03-5.43-16.14-13.67-16.14s-14.3,5.72-14.3,16.92,5.43,16.97,13.77,16.97,14.2-5.96,14.2-17.74Z"/>
      <path class="cls-4" d="M334.45,2.04v33.69h-1.26V.63h1.89l21.23,33.59V.63h1.26v35.1h-1.84l-21.28-33.69Z"/>
    </g>
    <g class="cls-3">
      <path class="cls-4" d="M1.6,56.46v-10.78h5.76v.36H1.99v4.94h4.97v.36H1.99v5.12h-.39Z"/>
      <path class="cls-4" d="M9.24,48.94v5.11c0,1.38.48,2.22,1.8,2.22,1.19,0,2.5-.82,3.04-1.33v-6h.39v7.52h-.31l-.04-1.07c-.95.67-1.89,1.25-3.07,1.25-1.64,0-2.19-.97-2.19-2.68v-5.02h.39Z"/>
      <path class="cls-4" d="M17.62,56.46v-11.24h.39v11.24h-.39Z"/>
      <path class="cls-4" d="M21.02,56.46v-11.24h.39v11.24h-.39Z"/>
      <path class="cls-4" d="M28.01,48.23c0,1.49,1.01,2,2.49,2.41,1.73.49,3.59.86,3.59,3.17,0,2.05-1.56,2.83-3.41,2.83-2.55,0-3.28-1.43-3.62-2.81l.4-.12c.27,1.22.98,2.55,3.2,2.55,1.37,0,3.01-.51,3.01-2.43s-1.65-2.35-3.25-2.77c-1.53-.4-2.83-1-2.83-2.84,0-1.68,1.22-2.73,3.26-2.73,1.91,0,2.95.95,3.25,2.93l-.36.03c-.25-1.09-.7-2.59-2.83-2.59s-2.9,1.1-2.9,2.37Z"/>
      <path class="cls-4" d="M38.5,56.64c-1.36,0-1.79-.61-1.79-1.85v-5.5h-1.22v-.36h1.22v-2.16l.39-.04v2.2h2.16v.36h-2.16v5.42c0,.95.25,1.55,1.34,1.55.52,0,1-.19,1.36-.43l.18.31c-.36.27-1.03.49-1.47.49Z"/>
      <path class="cls-4" d="M46.82,56.22c.16,0,.34-.04.52-.12l.09.3c-.3.12-.48.16-.76.16-.57,0-.7-.33-.71-.97-.57.57-1.53,1.04-2.61,1.04-1.94,0-2.19-1.4-2.19-2.1,0-2.22,2-2.37,3.54-2.37.42,0,.82.01,1.21.03v-.71c0-1.74-.42-2.31-1.94-2.31-1.37,0-1.91.52-2.07,1.5l-.42-.07c.24-1.39,1.12-1.8,2.52-1.8,1.71,0,2.31.61,2.31,2.47v4.3c0,.42.12.64.51.64ZM44.57,52.54c-1.74,0-2.99.36-2.99,2,0,.91.54,1.73,1.8,1.73,1.04,0,1.98-.49,2.55-1.21v-2.47c-.4-.03-.8-.04-1.35-.04Z"/>
      <path class="cls-4" d="M48.82,52.68c0-2.56,1.25-3.87,3.37-3.87,1.33,0,2.44.77,2.53,2.35l-.37.04c-.19-1.39-.94-2.03-2.2-2.03-1.41,0-2.9.82-2.9,3.48,0,2.9,1.46,3.6,2.84,3.6,1.24,0,2.08-.64,2.32-1.85l.39.07c-.31,1.55-1.47,2.14-2.7,2.14-2.43,0-3.28-1.67-3.28-3.96Z"/>
      <path class="cls-4" d="M61.62,48.94h.52l-2.71,2.81,2.9,4.71h-.45l-2.73-4.41-1.59,1.62v2.79h-.39v-11.24h.39v7.95l4.05-4.23Z"/>
      <path class="cls-4" d="M68.36,45.68h2.8c3.74,0,5.33,1.95,5.33,5.23s-1.77,5.55-5.38,5.55h-2.75v-10.78ZM76.07,50.92c0-3.66-2-4.88-4.99-4.88h-2.34v10.07h2.34c3.13,0,4.99-1.8,4.99-5.18Z"/>
      <path class="cls-4" d="M78.69,52.68c0-2.77,1.56-3.87,3.29-3.87,1.89,0,2.79,1.34,2.79,2.99,0,.34.01.52-.02.94h-5.64c.06,2.78,1.31,3.53,2.86,3.53,1.22,0,2-.69,2.29-1.79l.39.07c-.43,1.56-1.49,2.08-2.74,2.08-2.49,0-3.22-1.89-3.22-3.96ZM81.95,49.18c-1.4,0-2.7.86-2.83,3.2h5.23c.09-2.01-.66-3.2-2.4-3.2Z"/>
      <path class="cls-4" d="M85.94,48.94h.43l2.83,7.01h.03l2.8-7.01h.42l-2.99,7.52h-.45l-3.07-7.52Z"/>
      <path class="cls-4" d="M93.56,52.68c0-2.77,1.56-3.87,3.29-3.87,1.89,0,2.79,1.34,2.79,2.99,0,.34.01.52-.02.94h-5.64c.06,2.78,1.31,3.53,2.86,3.53,1.22,0,2-.69,2.29-1.79l.39.07c-.43,1.56-1.49,2.08-2.74,2.08-2.49,0-3.22-1.89-3.22-3.96ZM96.82,49.18c-1.4,0-2.7.86-2.83,3.2h5.23c.09-2.01-.66-3.2-2.4-3.2Z"/>
      <path class="cls-4" d="M102.16,56.46v-11.24h.39v11.24h-.39Z"/>
      <path class="cls-4" d="M104.99,52.74c0-2.46,1.27-3.93,3.44-3.93s3.08,1.47,3.08,3.72c0,2.41-.92,4.11-3.28,4.11s-3.25-1.71-3.25-3.9ZM111.1,52.62c0-2.46-1.04-3.44-2.73-3.44s-2.96,1.16-2.96,3.57.95,3.51,2.86,3.51c1.68,0,2.83-1.09,2.83-3.65Z"/>
      <path class="cls-4" d="M114.34,48.94l.04,1.03c.76-.63,1.61-1.16,2.78-1.16,1.5,0,2.81.68,2.81,3.68s-1.24,4.16-3.13,4.16c-1.04,0-2-.49-2.47-.89v3.87h-.39v-10.68h.34ZM116.9,56.27c1.89,0,2.67-1.56,2.67-3.78,0-2.37-.89-3.29-2.34-3.29-1.16,0-2.2.61-2.84,1.25v4.85c.43.34,1.3.97,2.52.97Z"/>
      <path class="cls-4" d="M122.06,52.68c0-2.77,1.56-3.87,3.29-3.87,1.89,0,2.78,1.34,2.78,2.99,0,.34.02.52-.01.94h-5.64c.06,2.78,1.31,3.53,2.86,3.53,1.22,0,2-.69,2.29-1.79l.39.07c-.43,1.56-1.49,2.08-2.74,2.08-2.49,0-3.22-1.89-3.22-3.96ZM125.33,49.18c-1.4,0-2.7.86-2.83,3.2h5.23c.09-2.01-.66-3.2-2.4-3.2Z"/>
      <path class="cls-4" d="M130.98,50.33v6.14h-.39v-7.52h.31l.06.97c.77-.77,1.65-1.19,2.81-1.09v.37c-1-.16-2.2.43-2.8,1.13Z"/>
      <path class="cls-4" d="M139.5,45.22h.34v13.37h-.34v-13.37Z"/>
      <path class="cls-4" d="M154.26,56.46h-.46l-1.33-3.93h-4.53l-1.34,3.93h-.43l3.75-10.78h.57l3.77,10.78ZM148.1,52.17h4.23l-2.12-6.2-2.11,6.2Z"/>
      <path class="cls-4" d="M156.64,50.33v6.14h-.39v-7.52h.31l.06.97c.77-.77,1.65-1.19,2.81-1.09v.37c-1-.16-2.2.43-2.8,1.13Z"/>
      <path class="cls-4" d="M160.35,52.68c0-2.56,1.25-3.87,3.37-3.87,1.33,0,2.44.77,2.53,2.35l-.37.04c-.19-1.39-.94-2.03-2.2-2.03-1.42,0-2.9.82-2.9,3.48,0,2.9,1.46,3.6,2.84,3.6,1.24,0,2.08-.64,2.32-1.85l.39.07c-.31,1.55-1.47,2.14-2.7,2.14-2.43,0-3.28-1.67-3.28-3.96Z"/>
      <path class="cls-4" d="M173.94,56.46v-5.09c0-1.35-.43-2.17-1.83-2.17-1.18,0-2.32.71-3.01,1.22v6.05h-.39v-11.24h.39v4.77c.95-.66,2-1.18,3.04-1.18,1.55,0,2.19.88,2.19,2.43v5.23h-.39Z"/>
      <path class="cls-4" d="M177.51,46.9c-.25,0-.4-.16-.4-.51s.15-.52.4-.52.4.16.4.52-.15.51-.4.51ZM177.32,56.46v-7.52h.39v7.52h-.39Z"/>
      <path class="cls-4" d="M182.65,56.64c-1.35,0-1.79-.61-1.79-1.85v-5.5h-1.22v-.36h1.22v-2.16l.39-.04v2.2h2.16v.36h-2.16v5.42c0,.95.25,1.55,1.34,1.55.52,0,1-.19,1.35-.43l.18.31c-.36.27-1.03.49-1.47.49Z"/>
      <path class="cls-4" d="M185.27,52.68c0-2.77,1.56-3.87,3.29-3.87,1.89,0,2.79,1.34,2.79,2.99,0,.34.01.52-.02.94h-5.64c.06,2.78,1.31,3.53,2.86,3.53,1.22,0,2-.69,2.29-1.79l.39.07c-.43,1.56-1.49,2.08-2.74,2.08-2.49,0-3.22-1.89-3.22-3.96ZM188.53,49.18c-1.4,0-2.7.86-2.83,3.2h5.23c.09-2.01-.66-3.2-2.4-3.2Z"/>
      <path class="cls-4" d="M193.29,52.68c0-2.56,1.25-3.87,3.37-3.87,1.33,0,2.44.77,2.53,2.35l-.37.04c-.19-1.39-.94-2.03-2.2-2.03-1.42,0-2.9.82-2.9,3.48,0,2.9,1.46,3.6,2.84,3.6,1.24,0,2.08-.64,2.32-1.85l.39.07c-.31,1.55-1.47,2.14-2.7,2.14-2.43,0-3.28-1.67-3.28-3.96Z"/>
      <path class="cls-4" d="M203.61,56.64c-1.36,0-1.79-.61-1.79-1.85v-5.5h-1.22v-.36h1.22v-2.16l.39-.04v2.2h2.16v.36h-2.16v5.42c0,.95.25,1.55,1.34,1.55.52,0,1-.19,1.36-.43l.18.31c-.36.27-1.03.49-1.47.49Z"/>
      <path class="cls-4" d="M206.89,48.94v5.11c0,1.38.48,2.22,1.8,2.22,1.19,0,2.5-.82,3.04-1.33v-6h.39v7.52h-.31l-.04-1.07c-.95.67-1.89,1.25-3.07,1.25-1.64,0-2.19-.97-2.19-2.68v-5.02h.39Z"/>
      <path class="cls-4" d="M215.59,50.33v6.14h-.39v-7.52h.31l.06.97c.77-.77,1.65-1.19,2.81-1.09v.37c-1-.16-2.2.43-2.8,1.13Z"/>
      <path class="cls-4" d="M225.06,56.22c.16,0,.34-.04.52-.12l.09.3c-.3.12-.48.16-.76.16-.57,0-.7-.33-.71-.97-.57.57-1.53,1.04-2.61,1.04-1.94,0-2.19-1.4-2.19-2.1,0-2.22,2-2.37,3.54-2.37.42,0,.82.01,1.21.03v-.71c0-1.74-.42-2.31-1.94-2.31-1.37,0-1.91.52-2.07,1.5l-.42-.07c.24-1.39,1.12-1.8,2.52-1.8,1.71,0,2.31.61,2.31,2.47v4.3c0,.42.12.64.51.64ZM222.81,52.54c-1.74,0-2.99.36-2.99,2,0,.91.54,1.73,1.8,1.73,1.04,0,1.98-.49,2.55-1.21v-2.47c-.4-.03-.8-.04-1.35-.04Z"/>
      <path class="cls-4" d="M227.63,56.46v-11.24h.39v11.24h-.39Z"/>
      <path class="cls-4" d="M233.69,45.68h.42l3.62,10.35,3.44-10.35h.42l-3.62,10.78h-.49l-3.78-10.78Z"/>
      <path class="cls-4" d="M243.88,46.9c-.25,0-.4-.16-.4-.51s.15-.52.4-.52.4.16.4.52-.15.51-.4.51ZM243.69,56.46v-7.52h.39v7.52h-.39Z"/>
      <path class="cls-4" d="M251.43,51.06l-.39.03c-.09-1.16-.54-1.91-2.01-1.91-1.38,0-1.95.83-1.95,1.56,0,1.24,1.04,1.46,2.21,1.71,1.1.22,2.38.51,2.38,2.07,0,1.16-.82,2.11-2.5,2.11-1.5,0-2.47-.57-2.73-2.37l.37-.04c.21,1.1.64,2.04,2.37,2.04,1.13,0,2.07-.46,2.07-1.77,0-1.15-.92-1.44-2.01-1.65-1.25-.24-2.58-.54-2.58-2.08,0-1.31,1.18-1.95,2.43-1.95,1.74,0,2.22.89,2.34,2.25Z"/>
      <path class="cls-4" d="M254.41,48.94v5.11c0,1.38.48,2.22,1.8,2.22,1.19,0,2.5-.82,3.04-1.33v-6h.39v7.52h-.31l-.04-1.07c-.95.67-1.89,1.25-3.07,1.25-1.64,0-2.19-.97-2.19-2.68v-5.02h.39Z"/>
      <path class="cls-4" d="M267.87,56.22c.16,0,.34-.04.52-.12l.09.3c-.3.12-.48.16-.76.16-.57,0-.7-.33-.71-.97-.57.57-1.53,1.04-2.61,1.04-1.94,0-2.19-1.4-2.19-2.1,0-2.22,2-2.37,3.54-2.37.42,0,.82.01,1.21.03v-.71c0-1.74-.42-2.31-1.94-2.31-1.37,0-1.91.52-2.07,1.5l-.42-.07c.24-1.39,1.12-1.8,2.52-1.8,1.71,0,2.31.61,2.31,2.47v4.3c0,.42.12.64.51.64ZM265.62,52.54c-1.74,0-2.99.36-2.99,2,0,.91.54,1.73,1.8,1.73,1.04,0,1.98-.49,2.55-1.21v-2.47c-.4-.03-.8-.04-1.36-.04Z"/>
      <path class="cls-4" d="M270.44,56.46v-11.24h.39v11.24h-.39Z"/>
      <path class="cls-4" d="M274.03,46.9c-.25,0-.4-.16-.4-.51s.15-.52.4-.52.4.16.4.52-.15.51-.4.51ZM273.83,56.46v-7.52h.39v7.52h-.39Z"/>
      <path class="cls-4" d="M281.87,56.1v.36h-5.57v-.28l5.03-6.88h-4.93v-.36h5.48v.24l-5.06,6.92h5.05Z"/>
      <path class="cls-4" d="M288.78,56.22c.16,0,.34-.04.52-.12l.09.3c-.3.12-.48.16-.76.16-.57,0-.7-.33-.71-.97-.57.57-1.53,1.04-2.61,1.04-1.94,0-2.19-1.4-2.19-2.1,0-2.22,2-2.37,3.54-2.37.42,0,.82.01,1.21.03v-.71c0-1.74-.42-2.31-1.94-2.31-1.37,0-1.91.52-2.07,1.5l-.42-.07c.24-1.39,1.12-1.8,2.52-1.8,1.71,0,2.31.61,2.31,2.47v4.3c0,.42.12.64.51.64ZM286.53,52.54c-1.74,0-2.99.36-2.99,2,0,.91.54,1.73,1.8,1.73,1.04,0,1.98-.49,2.55-1.21v-2.47c-.4-.03-.8-.04-1.35-.04Z"/>
      <path class="cls-4" d="M293.21,56.64c-1.36,0-1.79-.61-1.79-1.85v-5.5h-1.22v-.36h1.22v-2.16l.39-.04v2.2h2.16v.36h-2.16v5.42c0,.95.25,1.55,1.34,1.55.52,0,1-.19,1.36-.43l.18.31c-.36.27-1.03.49-1.47.49Z"/>
      <path class="cls-4" d="M296.78,46.9c-.25,0-.4-.16-.4-.51s.15-.52.4-.52.4.16.4.52-.15.51-.4.51ZM296.59,56.46v-7.52h.39v7.52h-.39Z"/>
      <path class="cls-4" d="M299.43,52.74c0-2.46,1.27-3.93,3.44-3.93s3.08,1.47,3.08,3.72c0,2.41-.92,4.11-3.28,4.11s-3.25-1.71-3.25-3.9ZM305.54,52.62c0-2.46-1.04-3.44-2.73-3.44s-2.96,1.16-2.96,3.57.95,3.51,2.86,3.51c1.68,0,2.83-1.09,2.83-3.65Z"/>
      <path class="cls-4" d="M313.67,56.46v-5.09c0-1.35-.42-2.17-1.86-2.17-1.21,0-2.44.82-2.98,1.22v6.05h-.39v-7.52h.33l.03,1.06c.92-.64,2-1.19,3.1-1.19,1.52,0,2.16.88,2.16,2.43v5.23h-.39Z"/>
      <path class="cls-4" d="M326.72,56.1v.36h-5.82v-10.78h5.73v.36h-5.35v4.74h4.99v.36h-4.99v4.97h5.44Z"/>
      <path class="cls-4" d="M333.83,56.46h-.48l-2.59-3.63-2.41,3.63h-.45l2.61-3.96-2.55-3.56h.48l2.32,3.25,2.26-3.25h.48l-2.47,3.56,2.8,3.96Z"/>
      <path class="cls-4" d="M336.1,48.94l.04,1.03c.76-.63,1.61-1.16,2.78-1.16,1.5,0,2.82.68,2.82,3.68s-1.24,4.16-3.13,4.16c-1.04,0-2-.49-2.47-.89v3.87h-.39v-10.68h.34ZM338.66,56.27c1.89,0,2.67-1.56,2.67-3.78,0-2.37-.89-3.29-2.34-3.29-1.16,0-2.21.61-2.84,1.25v4.85c.43.34,1.3.97,2.52.97Z"/>
      <path class="cls-4" d="M343.82,52.68c0-2.77,1.56-3.87,3.29-3.87,1.89,0,2.79,1.34,2.79,2.99,0,.34.01.52-.01.94h-5.64c.06,2.78,1.31,3.53,2.86,3.53,1.22,0,2-.69,2.29-1.79l.39.07c-.43,1.56-1.49,2.08-2.74,2.08-2.49,0-3.22-1.89-3.22-3.96ZM347.08,49.18c-1.4,0-2.7.86-2.83,3.2h5.23c.09-2.01-.66-3.2-2.4-3.2Z"/>
      <path class="cls-4" d="M352.74,50.33v6.14h-.39v-7.52h.31l.06.97c.77-.77,1.65-1.19,2.81-1.09v.37c-1-.16-2.2.43-2.8,1.13Z"/>
      <path class="cls-4" d="M359.48,56.64c-1.36,0-1.79-.61-1.79-1.85v-5.5h-1.22v-.36h1.22v-2.16l.39-.04v2.2h2.16v.36h-2.16v5.42c0,.95.25,1.55,1.34,1.55.52,0,1-.19,1.36-.43l.18.31c-.36.27-1.03.49-1.47.49Z"/>
    </g>
  </g>
</svg>